<svg width="148" height="48" viewBox="0 0 148 48" fill="none" xmlns="http://www.w3.org/2000/svg">
<rect width="148" height="48" rx="10" fill="white"/>
<path d="M34.7973 24.5804C34.819 22.8994 35.7217 21.3088 37.1539 20.4283C36.2504 19.138 34.7371 18.3199 33.1627 18.2706C31.4835 18.0944 29.8555 19.2754 28.9998 19.2754C28.1275 19.2754 26.81 18.2881 25.3913 18.3173C23.5421 18.3771 21.8181 19.4284 20.9184 21.0452C18.9844 24.3936 20.427 29.3146 22.2796 32.0213C23.2065 33.3466 24.2898 34.8271 25.7072 34.7746C27.0943 34.717 27.6123 33.8901 29.2866 33.8901C30.9454 33.8901 31.4314 34.7746 32.8776 34.7412C34.366 34.717 35.3038 33.4099 36.1981 32.072C36.8641 31.1277 37.3766 30.084 37.7166 28.9795C35.9674 28.2397 34.7994 26.4795 34.7973 24.5804Z" fill="#282828"/>
<path d="M32.0656 16.4906C32.8772 15.5164 33.277 14.2642 33.1802 13C31.9403 13.1302 30.7951 13.7228 29.9726 14.6596C29.1683 15.5749 28.7497 16.8051 28.8289 18.021C30.0692 18.0338 31.2885 17.4573 32.0656 16.4906Z" fill="#282828"/>
<path d="M45.87 20H48.24C50.46 20 52.04 18.57 52.04 16.56C52.04 14.55 50.46 13.13 48.24 13.13H45.87V20ZM46.88 19.08V14.05H48.3C49.89 14.05 51 15.09 51 16.56C51 18.04 49.89 19.08 48.3 19.08H46.88ZM55.7872 20.12C57.2572 20.12 58.4972 18.88 58.4972 17.41C58.4972 15.94 57.2572 14.71 55.7872 14.71C54.3072 14.71 53.0572 15.94 53.0572 17.41C53.0572 18.88 54.3072 20.12 55.7872 20.12ZM55.7872 19.26C54.8372 19.26 54.0472 18.42 54.0472 17.41C54.0472 16.41 54.8372 15.57 55.7872 15.57C56.7172 15.57 57.5072 16.41 57.5072 17.41C57.5072 18.42 56.7172 19.26 55.7872 19.26ZM60.7507 20H61.6607L62.9107 16.16L64.1507 20H65.0607L66.8007 14.83H65.7907L64.6107 18.68L63.3307 14.83H62.4907L61.2107 18.68L60.0207 14.83H59.0107L60.7507 20ZM70.4301 14.71C69.7301 14.71 69.1001 15.07 68.7901 15.58V14.83H67.8001V20H68.7901V16.65C68.8701 16.04 69.4901 15.57 70.2101 15.57C70.9101 15.57 71.4001 16.11 71.4001 16.88V20H72.3701V16.71C72.3701 15.54 71.5701 14.71 70.4301 14.71ZM73.7864 20H74.7664V13.01H73.7864V20ZM78.6583 20.12C80.1283 20.12 81.3683 18.88 81.3683 17.41C81.3683 15.94 80.1283 14.71 78.6583 14.71C77.1783 14.71 75.9283 15.94 75.9283 17.41C75.9283 18.88 77.1783 20.12 78.6583 20.12ZM78.6583 19.26C77.7083 19.26 76.9183 18.42 76.9183 17.41C76.9183 16.41 77.7083 15.57 78.6583 15.57C79.5883 15.57 80.3783 16.41 80.3783 17.41C80.3783 18.42 79.5883 19.26 78.6583 19.26ZM84.6966 14.71C84.1266 14.71 83.4766 14.86 82.7366 15.23L83.0966 15.96C83.5466 15.73 84.0466 15.53 84.5566 15.53C85.5866 15.53 85.8866 16.22 85.8866 16.87V17.03C85.3866 16.86 84.8366 16.75 84.3266 16.75C83.1866 16.75 82.2566 17.44 82.2566 18.47C82.2566 19.48 83.0666 20.12 84.1666 20.12C84.7966 20.12 85.5066 19.83 85.8866 19.29V20H86.8566V16.87C86.8566 15.59 86.0866 14.71 84.6966 14.71ZM84.3566 19.34C83.7066 19.34 83.2066 19 83.2066 18.44C83.2066 17.88 83.7866 17.49 84.4766 17.49C84.9866 17.49 85.4666 17.56 85.8866 17.69V18.38C85.7166 19.02 84.9966 19.34 84.3566 19.34ZM92.2684 13.01V15.72C91.8684 15.09 91.2284 14.71 90.4284 14.71C89.0684 14.71 88.0484 15.83 88.0484 17.41C88.0484 19 89.0684 20.12 90.4284 20.12C91.2284 20.12 91.8684 19.74 92.2684 19.1V20H93.2484V13.01H92.2684ZM90.6684 19.26C89.7184 19.26 89.0484 18.49 89.0484 17.41C89.0484 16.33 89.7184 15.57 90.6684 15.57C91.5984 15.57 92.2684 16.33 92.2684 17.41C92.2684 18.49 91.5984 19.26 90.6684 19.26ZM100.045 20.12C101.515 20.12 102.755 18.88 102.755 17.41C102.755 15.94 101.515 14.71 100.045 14.71C98.565 14.71 97.315 15.94 97.315 17.41C97.315 18.88 98.565 20.12 100.045 20.12ZM100.045 19.26C99.095 19.26 98.305 18.42 98.305 17.41C98.305 16.41 99.095 15.57 100.045 15.57C100.975 15.57 101.765 16.41 101.765 17.41C101.765 18.42 100.975 19.26 100.045 19.26ZM106.543 14.71C105.843 14.71 105.213 15.07 104.903 15.58V14.83H103.913V20H104.903V16.65C104.983 16.04 105.603 15.57 106.323 15.57C107.023 15.57 107.513 16.11 107.513 16.88V20H108.483V16.71C108.483 15.54 107.683 14.71 106.543 14.71ZM115.181 19.07C115.071 19.18 114.871 19.26 114.651 19.26C114.361 19.26 114.121 19 114.121 18.64V15.67H115.341V14.83H114.121V13.41H113.151V14.83H112.371V15.67H113.151V18.71C113.151 19.54 113.711 20.12 114.511 20.12C114.881 20.12 115.261 19.98 115.541 19.75L115.181 19.07ZM119.18 14.71C118.47 14.71 117.84 15.08 117.53 15.6V13.01H116.55V20H117.53V16.79C117.53 16.12 118.18 15.57 118.96 15.57C119.66 15.57 120.15 16.11 120.15 16.88V20H121.12V16.71C121.12 15.54 120.32 14.71 119.18 14.71ZM124.906 19.24C124.016 19.24 123.386 18.62 123.256 17.76H127.326C127.326 15.91 126.416 14.71 124.836 14.71C123.406 14.71 122.256 15.85 122.256 17.4C122.256 18.99 123.476 20.12 124.916 20.12C125.646 20.12 126.546 19.81 127.006 19.32L126.386 18.68C126.076 19 125.446 19.24 124.906 19.24ZM124.876 15.59C125.766 15.59 126.256 16.17 126.366 16.97H123.266C123.426 16.13 124.076 15.59 124.876 15.59Z" fill="#282828"/>
<path d="M53.008 33H55.332L51.412 23.382H49.102L45.182 33H47.492L48.108 31.488H52.392L53.008 33ZM48.822 29.738L50.25 26.224L51.678 29.738H48.822ZM60.8757 25.594C59.8677 25.594 59.0277 26.028 58.4537 26.77V25.762H56.4097V35.408H58.4537V31.978C59.0277 32.734 59.8677 33.168 60.8757 33.168C62.8077 33.168 64.2077 31.6 64.2077 29.374C64.2077 27.162 62.8077 25.594 60.8757 25.594ZM60.2877 31.446C59.2937 31.446 58.5657 30.718 58.4537 29.654V29.094C58.5657 28.044 59.2937 27.316 60.2877 27.316C61.4217 27.316 62.2197 28.17 62.2197 29.374C62.2197 30.592 61.4217 31.446 60.2877 31.446ZM70.1179 25.594C69.1099 25.594 68.2699 26.028 67.6959 26.77V25.762H65.6519V35.408H67.6959V31.978C68.2699 32.734 69.1099 33.168 70.1179 33.168C72.0499 33.168 73.4499 31.6 73.4499 29.374C73.4499 27.162 72.0499 25.594 70.1179 25.594ZM69.5299 31.446C68.5359 31.446 67.8079 30.718 67.6959 29.654V29.094C67.8079 28.044 68.5359 27.316 69.5299 27.316C70.6639 27.316 71.4619 28.17 71.4619 29.374C71.4619 30.592 70.6639 31.446 69.5299 31.446ZM82.5002 33.168C84.8522 33.168 86.2382 31.95 86.2382 30.116C86.2382 28.338 84.8662 27.722 82.7942 27.26C81.3102 26.924 80.7362 26.7 80.7362 26C80.7362 25.426 81.2682 24.964 82.1502 24.964C83.0742 24.964 84.0402 25.342 84.8942 26.028L85.9722 24.544C84.9922 23.704 83.7742 23.214 82.2062 23.214C80.1062 23.214 78.6502 24.432 78.6502 26.21C78.6502 28.072 80.0922 28.646 82.1222 29.108C83.5922 29.444 84.1522 29.654 84.1522 30.34C84.1522 30.942 83.6202 31.418 82.5842 31.418C81.3662 31.418 80.3302 30.942 79.4202 30.158L78.2302 31.572C79.3502 32.608 80.8342 33.168 82.5002 33.168ZM91.4716 31.208C91.3316 31.348 91.0516 31.446 90.7716 31.446C90.3936 31.446 90.0856 31.11 90.0856 30.634V27.414H91.6536V25.762H90.0856V23.774H88.1256V25.762H87.1316V27.414H88.1256V30.956C88.1256 32.258 89.0216 33.168 90.2956 33.168C90.8836 33.168 91.5416 32.916 91.9616 32.538L91.4716 31.208ZM96.7977 33.168C98.9397 33.168 100.732 31.432 100.732 29.374C100.732 27.316 98.9397 25.594 96.7977 25.594C94.6417 25.594 92.8357 27.316 92.8357 29.374C92.8357 31.432 94.6417 33.168 96.7977 33.168ZM96.7977 31.446C95.7057 31.446 94.7957 30.494 94.7957 29.374C94.7957 28.254 95.7057 27.316 96.7977 27.316C97.8757 27.316 98.7857 28.254 98.7857 29.374C98.7857 30.494 97.8757 31.446 96.7977 31.446ZM104.159 27.106V25.762H102.115V33H104.159V29.542C104.159 28.184 105.125 27.316 106.637 27.316V25.594C105.531 25.594 104.635 26.168 104.159 27.106ZM111.232 31.362C110.378 31.362 109.748 30.83 109.51 30.046H114.732C114.732 27.316 113.402 25.594 111.134 25.594C109.02 25.594 107.41 27.176 107.41 29.36C107.41 31.586 109.09 33.168 111.246 33.168C112.31 33.168 113.556 32.72 114.2 32.048L112.898 30.718C112.506 31.096 111.806 31.362 111.232 31.362ZM111.218 27.4C112.044 27.4 112.576 27.862 112.772 28.576H109.538C109.804 27.848 110.448 27.4 111.218 27.4Z" fill="#282828"/>
</svg>
