<svg width="250" height="151" viewBox="0 0 250 151" fill="none" xmlns="http://www.w3.org/2000/svg">
<g filter="url(#filter0_dddd_2198_7043)">
<rect x="51" y="18.5" width="148" height="48" rx="10" fill="white"/>
</g>
<path d="M85.7973 43.0804C85.819 41.3994 86.7217 39.8088 88.1539 38.9283C87.2504 37.638 85.7371 36.8199 84.1627 36.7706C82.4835 36.5944 80.8555 37.7754 79.9998 37.7754C79.1275 37.7754 77.81 36.7881 76.3913 36.8173C74.5421 36.8771 72.8181 37.9284 71.9184 39.5452C69.9844 42.8936 71.427 47.8146 73.2796 50.5213C74.2065 51.8466 75.2898 53.3271 76.7072 53.2746C78.0943 53.217 78.6123 52.3901 80.2866 52.3901C81.9454 52.3901 82.4314 53.2746 83.8776 53.2412C85.366 53.217 86.3038 51.9099 87.1981 50.572C87.8641 49.6277 88.3766 48.584 88.7166 47.4795C86.9674 46.7397 85.7994 44.9795 85.7973 43.0804Z" fill="#282828"/>
<path d="M83.0656 34.9906C83.8772 34.0164 84.277 32.7642 84.1802 31.5C82.9403 31.6302 81.7951 32.2228 80.9726 33.1596C80.1683 34.0749 79.7497 35.3051 79.8289 36.521C81.0692 36.5338 82.2885 35.9573 83.0656 34.9906Z" fill="#282828"/>
<path d="M96.87 38.5H99.24C101.46 38.5 103.04 37.07 103.04 35.06C103.04 33.05 101.46 31.63 99.24 31.63H96.87V38.5ZM97.88 37.58V32.55H99.3C100.89 32.55 102 33.59 102 35.06C102 36.54 100.89 37.58 99.3 37.58H97.88ZM106.787 38.62C108.257 38.62 109.497 37.38 109.497 35.91C109.497 34.44 108.257 33.21 106.787 33.21C105.307 33.21 104.057 34.44 104.057 35.91C104.057 37.38 105.307 38.62 106.787 38.62ZM106.787 37.76C105.837 37.76 105.047 36.92 105.047 35.91C105.047 34.91 105.837 34.07 106.787 34.07C107.717 34.07 108.507 34.91 108.507 35.91C108.507 36.92 107.717 37.76 106.787 37.76ZM111.751 38.5H112.661L113.911 34.66L115.151 38.5H116.061L117.801 33.33H116.791L115.611 37.18L114.331 33.33H113.491L112.211 37.18L111.021 33.33H110.011L111.751 38.5ZM121.43 33.21C120.73 33.21 120.1 33.57 119.79 34.08V33.33H118.8V38.5H119.79V35.15C119.87 34.54 120.49 34.07 121.21 34.07C121.91 34.07 122.4 34.61 122.4 35.38V38.5H123.37V35.21C123.37 34.04 122.57 33.21 121.43 33.21ZM124.786 38.5H125.766V31.51H124.786V38.5ZM129.658 38.62C131.128 38.62 132.368 37.38 132.368 35.91C132.368 34.44 131.128 33.21 129.658 33.21C128.178 33.21 126.928 34.44 126.928 35.91C126.928 37.38 128.178 38.62 129.658 38.62ZM129.658 37.76C128.708 37.76 127.918 36.92 127.918 35.91C127.918 34.91 128.708 34.07 129.658 34.07C130.588 34.07 131.378 34.91 131.378 35.91C131.378 36.92 130.588 37.76 129.658 37.76ZM135.697 33.21C135.127 33.21 134.477 33.36 133.737 33.73L134.097 34.46C134.547 34.23 135.047 34.03 135.557 34.03C136.587 34.03 136.887 34.72 136.887 35.37V35.53C136.387 35.36 135.837 35.25 135.327 35.25C134.187 35.25 133.257 35.94 133.257 36.97C133.257 37.98 134.067 38.62 135.167 38.62C135.797 38.62 136.507 38.33 136.887 37.79V38.5H137.857V35.37C137.857 34.09 137.087 33.21 135.697 33.21ZM135.357 37.84C134.707 37.84 134.207 37.5 134.207 36.94C134.207 36.38 134.787 35.99 135.477 35.99C135.987 35.99 136.467 36.06 136.887 36.19V36.88C136.717 37.52 135.997 37.84 135.357 37.84ZM143.268 31.51V34.22C142.868 33.59 142.228 33.21 141.428 33.21C140.068 33.21 139.048 34.33 139.048 35.91C139.048 37.5 140.068 38.62 141.428 38.62C142.228 38.62 142.868 38.24 143.268 37.6V38.5H144.248V31.51H143.268ZM141.668 37.76C140.718 37.76 140.048 36.99 140.048 35.91C140.048 34.83 140.718 34.07 141.668 34.07C142.598 34.07 143.268 34.83 143.268 35.91C143.268 36.99 142.598 37.76 141.668 37.76ZM151.045 38.62C152.515 38.62 153.755 37.38 153.755 35.91C153.755 34.44 152.515 33.21 151.045 33.21C149.565 33.21 148.315 34.44 148.315 35.91C148.315 37.38 149.565 38.62 151.045 38.62ZM151.045 37.76C150.095 37.76 149.305 36.92 149.305 35.91C149.305 34.91 150.095 34.07 151.045 34.07C151.975 34.07 152.765 34.91 152.765 35.91C152.765 36.92 151.975 37.76 151.045 37.76ZM157.543 33.21C156.843 33.21 156.213 33.57 155.903 34.08V33.33H154.913V38.5H155.903V35.15C155.983 34.54 156.603 34.07 157.323 34.07C158.023 34.07 158.513 34.61 158.513 35.38V38.5H159.483V35.21C159.483 34.04 158.683 33.21 157.543 33.21ZM166.181 37.57C166.071 37.68 165.871 37.76 165.651 37.76C165.361 37.76 165.121 37.5 165.121 37.14V34.17H166.341V33.33H165.121V31.91H164.151V33.33H163.371V34.17H164.151V37.21C164.151 38.04 164.711 38.62 165.511 38.62C165.881 38.62 166.261 38.48 166.541 38.25L166.181 37.57ZM170.18 33.21C169.47 33.21 168.84 33.58 168.53 34.1V31.51H167.55V38.5H168.53V35.29C168.53 34.62 169.18 34.07 169.96 34.07C170.66 34.07 171.15 34.61 171.15 35.38V38.5H172.12V35.21C172.12 34.04 171.32 33.21 170.18 33.21ZM175.906 37.74C175.016 37.74 174.386 37.12 174.256 36.26H178.326C178.326 34.41 177.416 33.21 175.836 33.21C174.406 33.21 173.256 34.35 173.256 35.9C173.256 37.49 174.476 38.62 175.916 38.62C176.646 38.62 177.546 38.31 178.006 37.82L177.386 37.18C177.076 37.5 176.446 37.74 175.906 37.74ZM175.876 34.09C176.766 34.09 177.256 34.67 177.366 35.47H174.266C174.426 34.63 175.076 34.09 175.876 34.09Z" fill="#282828"/>
<path d="M104.008 51.5H106.332L102.412 41.882H100.102L96.182 51.5H98.492L99.108 49.988H103.392L104.008 51.5ZM99.822 48.238L101.25 44.724L102.678 48.238H99.822ZM111.876 44.094C110.868 44.094 110.028 44.528 109.454 45.27V44.262H107.41V53.908H109.454V50.478C110.028 51.234 110.868 51.668 111.876 51.668C113.808 51.668 115.208 50.1 115.208 47.874C115.208 45.662 113.808 44.094 111.876 44.094ZM111.288 49.946C110.294 49.946 109.566 49.218 109.454 48.154V47.594C109.566 46.544 110.294 45.816 111.288 45.816C112.422 45.816 113.22 46.67 113.22 47.874C113.22 49.092 112.422 49.946 111.288 49.946ZM121.118 44.094C120.11 44.094 119.27 44.528 118.696 45.27V44.262H116.652V53.908H118.696V50.478C119.27 51.234 120.11 51.668 121.118 51.668C123.05 51.668 124.45 50.1 124.45 47.874C124.45 45.662 123.05 44.094 121.118 44.094ZM120.53 49.946C119.536 49.946 118.808 49.218 118.696 48.154V47.594C118.808 46.544 119.536 45.816 120.53 45.816C121.664 45.816 122.462 46.67 122.462 47.874C122.462 49.092 121.664 49.946 120.53 49.946ZM133.5 51.668C135.852 51.668 137.238 50.45 137.238 48.616C137.238 46.838 135.866 46.222 133.794 45.76C132.31 45.424 131.736 45.2 131.736 44.5C131.736 43.926 132.268 43.464 133.15 43.464C134.074 43.464 135.04 43.842 135.894 44.528L136.972 43.044C135.992 42.204 134.774 41.714 133.206 41.714C131.106 41.714 129.65 42.932 129.65 44.71C129.65 46.572 131.092 47.146 133.122 47.608C134.592 47.944 135.152 48.154 135.152 48.84C135.152 49.442 134.62 49.918 133.584 49.918C132.366 49.918 131.33 49.442 130.42 48.658L129.23 50.072C130.35 51.108 131.834 51.668 133.5 51.668ZM142.472 49.708C142.332 49.848 142.052 49.946 141.772 49.946C141.394 49.946 141.086 49.61 141.086 49.134V45.914H142.654V44.262H141.086V42.274H139.126V44.262H138.132V45.914H139.126V49.456C139.126 50.758 140.022 51.668 141.296 51.668C141.884 51.668 142.542 51.416 142.962 51.038L142.472 49.708ZM147.798 51.668C149.94 51.668 151.732 49.932 151.732 47.874C151.732 45.816 149.94 44.094 147.798 44.094C145.642 44.094 143.836 45.816 143.836 47.874C143.836 49.932 145.642 51.668 147.798 51.668ZM147.798 49.946C146.706 49.946 145.796 48.994 145.796 47.874C145.796 46.754 146.706 45.816 147.798 45.816C148.876 45.816 149.786 46.754 149.786 47.874C149.786 48.994 148.876 49.946 147.798 49.946ZM155.159 45.606V44.262H153.115V51.5H155.159V48.042C155.159 46.684 156.125 45.816 157.637 45.816V44.094C156.531 44.094 155.635 44.668 155.159 45.606ZM162.232 49.862C161.378 49.862 160.748 49.33 160.51 48.546H165.732C165.732 45.816 164.402 44.094 162.134 44.094C160.02 44.094 158.41 45.676 158.41 47.86C158.41 50.086 160.09 51.668 162.246 51.668C163.31 51.668 164.556 51.22 165.2 50.548L163.898 49.218C163.506 49.596 162.806 49.862 162.232 49.862ZM162.218 45.9C163.044 45.9 163.576 46.362 163.772 47.076H160.538C160.804 46.348 161.448 45.9 162.218 45.9Z" fill="#282828"/>
<defs>
<filter id="filter0_dddd_2198_7043" x="0" y="0.5" width="250" height="150" filterUnits="userSpaceOnUse" color-interpolation-filters="sRGB">
<feFlood flood-opacity="0" result="BackgroundImageFix"/>
<feColorMatrix in="SourceAlpha" type="matrix" values="0 0 0 0 0 0 0 0 0 0 0 0 0 0 0 0 0 0 127 0" result="hardAlpha"/>
<feOffset dy="1.4945"/>
<feGaussianBlur stdDeviation="1.15484"/>
<feColorMatrix type="matrix" values="0 0 0 0 0 0 0 0 0 0 0 0 0 0 0 0 0 0 0.0268173 0"/>
<feBlend mode="normal" in2="BackgroundImageFix" result="effect1_dropShadow_2198_7043"/>
<feColorMatrix in="SourceAlpha" type="matrix" values="0 0 0 0 0 0 0 0 0 0 0 0 0 0 0 0 0 0 127 0" result="hardAlpha"/>
<feOffset dy="4.13211"/>
<feGaussianBlur stdDeviation="3.193"/>
<feColorMatrix type="matrix" values="0 0 0 0 0 0 0 0 0 0 0 0 0 0 0 0 0 0 0.0399899 0"/>
<feBlend mode="normal" in2="effect1_dropShadow_2198_7043" result="effect2_dropShadow_2198_7043"/>
<feColorMatrix in="SourceAlpha" type="matrix" values="0 0 0 0 0 0 0 0 0 0 0 0 0 0 0 0 0 0 127 0" result="hardAlpha"/>
<feOffset dy="9.94853"/>
<feGaussianBlur stdDeviation="7.6875"/>
<feColorMatrix type="matrix" values="0 0 0 0 0 0 0 0 0 0 0 0 0 0 0 0 0 0 0.0582218 0"/>
<feBlend mode="normal" in2="effect2_dropShadow_2198_7043" result="effect3_dropShadow_2198_7043"/>
<feColorMatrix in="SourceAlpha" type="matrix" values="0 0 0 0 0 0 0 0 0 0 0 0 0 0 0 0 0 0 127 0" result="hardAlpha"/>
<feOffset dy="33"/>
<feGaussianBlur stdDeviation="25.5"/>
<feColorMatrix type="matrix" values="0 0 0 0 0 0 0 0 0 0 0 0 0 0 0 0 0 0 0.08 0"/>
<feBlend mode="normal" in2="effect3_dropShadow_2198_7043" result="effect4_dropShadow_2198_7043"/>
<feBlend mode="normal" in="SourceGraphic" in2="effect4_dropShadow_2198_7043" result="shape"/>
</filter>
</defs>
</svg>
