<svg width="255" height="151" viewBox="0 0 255 151" fill="none" xmlns="http://www.w3.org/2000/svg">
<g filter="url(#filter0_dddd_2198_7033)">
<rect x="51" y="18.5" width="153" height="48" rx="10" fill="white"/>
</g>
<path d="M104.92 35.68H106.76V37.12C106.29 37.48 105.64 37.69 105.06 37.69C103.68 37.69 102.52 36.49 102.52 35.06C102.52 33.64 103.68 32.44 105.06 32.44C105.77 32.44 106.58 32.76 107.05 33.27L107.76 32.59C107.11 31.92 106.03 31.51 105.06 31.51C103.13 31.51 101.48 33.13 101.48 35.06C101.48 36.99 103.13 38.62 105.06 38.62C106.03 38.62 107.11 38.2 107.76 37.54V34.8H104.92V35.68ZM111.531 37.74C110.641 37.74 110.011 37.12 109.881 36.26H113.951C113.951 34.41 113.041 33.21 111.461 33.21C110.031 33.21 108.881 34.35 108.881 35.9C108.881 37.49 110.101 38.62 111.541 38.62C112.271 38.62 113.171 38.31 113.631 37.82L113.011 37.18C112.701 37.5 112.071 37.74 111.531 37.74ZM111.501 34.09C112.391 34.09 112.881 34.67 112.991 35.47H109.891C110.051 34.63 110.701 34.09 111.501 34.09ZM117.519 37.57C117.409 37.68 117.209 37.76 116.989 37.76C116.699 37.76 116.459 37.5 116.459 37.14V34.17H117.679V33.33H116.459V31.91H115.489V33.33H114.709V34.17H115.489V37.21C115.489 38.04 116.049 38.62 116.849 38.62C117.219 38.62 117.599 38.48 117.879 38.25L117.519 37.57ZM122.239 32.47C122.559 32.47 122.829 32.19 122.829 31.87C122.829 31.56 122.559 31.28 122.239 31.28C121.899 31.28 121.639 31.56 121.639 31.87C121.639 32.19 121.899 32.47 122.239 32.47ZM121.739 38.5H122.729V33.33H121.739V38.5ZM126.581 37.57C126.471 37.68 126.271 37.76 126.051 37.76C125.761 37.76 125.521 37.5 125.521 37.14V34.17H126.741V33.33H125.521V31.91H124.551V33.33H123.771V34.17H124.551V37.21C124.551 38.04 125.111 38.62 125.911 38.62C126.281 38.62 126.661 38.48 126.941 38.25L126.581 37.57ZM134.142 38.62C136.072 38.62 137.692 36.99 137.692 35.06C137.692 33.13 136.072 31.51 134.142 31.51C132.212 31.51 130.572 33.13 130.572 35.06C130.572 36.99 132.212 38.62 134.142 38.62ZM134.142 37.69C132.772 37.69 131.612 36.49 131.612 35.06C131.612 33.64 132.772 32.44 134.142 32.44C135.512 32.44 136.662 33.64 136.662 35.06C136.662 36.49 135.512 37.69 134.142 37.69ZM141.528 33.21C140.828 33.21 140.198 33.57 139.888 34.08V33.33H138.898V38.5H139.888V35.15C139.968 34.54 140.588 34.07 141.308 34.07C142.008 34.07 142.498 34.61 142.498 35.38V38.5H143.468V35.21C143.468 34.04 142.668 33.21 141.528 33.21Z" fill="#282828"/>
<path d="M106.362 47.706H108.602V49.176C108.056 49.568 107.384 49.792 106.726 49.792C105.088 49.792 103.702 48.364 103.702 46.684C103.702 45.018 105.088 43.59 106.726 43.59C107.608 43.59 108.546 44.01 109.12 44.668L110.618 43.324C109.652 42.316 108.168 41.714 106.726 41.714C103.94 41.714 101.574 43.982 101.574 46.684C101.574 49.386 103.94 51.668 106.726 51.668C108.168 51.668 109.652 51.066 110.618 50.058V46.096H106.362V47.706ZM115.856 51.668C117.998 51.668 119.79 49.932 119.79 47.874C119.79 45.816 117.998 44.094 115.856 44.094C113.7 44.094 111.894 45.816 111.894 47.874C111.894 49.932 113.7 51.668 115.856 51.668ZM115.856 49.946C114.764 49.946 113.854 48.994 113.854 47.874C113.854 46.754 114.764 45.816 115.856 45.816C116.934 45.816 117.844 46.754 117.844 47.874C117.844 48.994 116.934 49.946 115.856 49.946ZM124.729 51.668C126.871 51.668 128.663 49.932 128.663 47.874C128.663 45.816 126.871 44.094 124.729 44.094C122.573 44.094 120.767 45.816 120.767 47.874C120.767 49.932 122.573 51.668 124.729 51.668ZM124.729 49.946C123.637 49.946 122.727 48.994 122.727 47.874C122.727 46.754 123.637 45.816 124.729 45.816C125.807 45.816 126.717 46.754 126.717 47.874C126.717 48.994 125.807 49.946 124.729 49.946ZM135.282 44.262V45.242C134.792 44.556 133.868 44.094 132.888 44.094C131.068 44.094 129.682 45.508 129.682 47.524C129.682 49.54 131.068 50.968 132.888 50.968C133.84 50.968 134.708 50.548 135.282 49.848V50.646C135.282 51.584 134.442 52.186 133.126 52.186C132.286 52.186 131.446 51.92 130.97 51.5L130.256 52.942C130.97 53.502 132.174 53.908 133.448 53.908C135.73 53.908 137.34 52.592 137.34 50.73V44.262H135.282ZM133.532 49.246C132.51 49.246 131.782 48.532 131.782 47.524C131.782 46.516 132.51 45.816 133.532 45.816C134.554 45.816 135.282 46.516 135.282 47.524C135.282 48.532 134.554 49.246 133.532 49.246ZM139.138 51.5H141.182V41.714H139.138V51.5ZM146.382 49.862C145.528 49.862 144.898 49.33 144.66 48.546H149.882C149.882 45.816 148.552 44.094 146.284 44.094C144.17 44.094 142.56 45.676 142.56 47.86C142.56 50.086 144.24 51.668 146.396 51.668C147.46 51.668 148.706 51.22 149.35 50.548L148.048 49.218C147.656 49.596 146.956 49.862 146.382 49.862ZM146.368 45.9C147.194 45.9 147.726 46.362 147.922 47.076H144.688C144.954 46.348 145.598 45.9 146.368 45.9ZM155.231 51.5H157.289V48.378H159.557C161.643 48.378 163.183 47.034 163.183 45.13C163.183 43.226 161.643 41.882 159.557 41.882H155.231V51.5ZM157.289 46.488V43.772H159.333C160.355 43.772 161.055 44.304 161.055 45.13C161.055 45.956 160.355 46.488 159.333 46.488H157.289ZM164.417 51.5H166.461V41.714H164.417V51.5ZM171.48 44.094C170.472 44.094 169.478 44.374 168.456 44.892L169.142 46.25C169.716 45.956 170.346 45.732 171.018 45.732C172.208 45.732 172.684 46.404 172.684 47.174V47.314C172.068 47.076 171.424 46.95 170.836 46.95C169.156 46.95 167.826 47.93 167.826 49.358C167.826 50.744 169.016 51.668 170.556 51.668C171.34 51.668 172.166 51.36 172.684 50.772V51.5H174.658V47.174C174.658 45.284 173.37 44.094 171.48 44.094ZM171.018 50.254C170.318 50.254 169.8 49.89 169.8 49.302C169.8 48.714 170.388 48.28 171.13 48.28C171.69 48.28 172.222 48.378 172.684 48.546V49.218C172.544 49.89 171.802 50.254 171.018 50.254ZM178.032 54.02C179.166 54.02 180.09 53.278 180.636 51.864L183.604 44.262H181.518L179.712 49.344L177.808 44.262H175.694L178.704 51.57L178.452 52.102C178.298 52.368 177.99 52.494 177.598 52.494C177.36 52.494 176.996 52.368 176.646 52.172L176.212 53.572C176.702 53.838 177.43 54.02 178.032 54.02Z" fill="#282828"/>
<g filter="url(#filter1_ii_2198_7033)">
<path d="M71.4612 29.9014C71.1713 30.2128 71 30.696 71 31.3217V53.6778C71 54.3045 71.1713 54.7867 71.4612 55.098L71.5349 55.1708L83.8757 42.6473V42.4997V42.3522L71.5349 29.8276L71.4612 29.9014Z" fill="url(#paint0_linear_2198_7033)"/>
<path d="M87.9887 46.8231L83.8758 42.6473V42.4997V42.3521L87.9897 38.1772L88.0823 38.2308L92.9563 41.041C94.3479 41.8436 94.3479 43.1567 92.9563 43.9604L88.0823 46.7705L87.9887 46.8231Z" fill="url(#paint1_linear_2198_7033)"/>
<g filter="url(#filter2_i_2198_7033)">
<path d="M88.0823 46.7696L83.8748 42.4998L71.4612 55.0981C71.9194 55.5914 72.6775 55.652 73.5311 55.1607L88.0823 46.7696Z" fill="url(#paint2_linear_2198_7033)"/>
</g>
<path d="M88.0823 38.2298L73.5311 29.8397C72.6775 29.3474 71.9194 29.4091 71.4612 29.9024L83.8758 42.5007L88.0823 38.2298Z" fill="url(#paint3_linear_2198_7033)"/>
</g>
<defs>
<filter id="filter0_dddd_2198_7033" x="0" y="0.5" width="255" height="150" filterUnits="userSpaceOnUse" color-interpolation-filters="sRGB">
<feFlood flood-opacity="0" result="BackgroundImageFix"/>
<feColorMatrix in="SourceAlpha" type="matrix" values="0 0 0 0 0 0 0 0 0 0 0 0 0 0 0 0 0 0 127 0" result="hardAlpha"/>
<feOffset dy="1.4945"/>
<feGaussianBlur stdDeviation="1.15484"/>
<feColorMatrix type="matrix" values="0 0 0 0 0 0 0 0 0 0 0 0 0 0 0 0 0 0 0.0268173 0"/>
<feBlend mode="normal" in2="BackgroundImageFix" result="effect1_dropShadow_2198_7033"/>
<feColorMatrix in="SourceAlpha" type="matrix" values="0 0 0 0 0 0 0 0 0 0 0 0 0 0 0 0 0 0 127 0" result="hardAlpha"/>
<feOffset dy="4.13211"/>
<feGaussianBlur stdDeviation="3.193"/>
<feColorMatrix type="matrix" values="0 0 0 0 0 0 0 0 0 0 0 0 0 0 0 0 0 0 0.0399899 0"/>
<feBlend mode="normal" in2="effect1_dropShadow_2198_7033" result="effect2_dropShadow_2198_7033"/>
<feColorMatrix in="SourceAlpha" type="matrix" values="0 0 0 0 0 0 0 0 0 0 0 0 0 0 0 0 0 0 127 0" result="hardAlpha"/>
<feOffset dy="9.94853"/>
<feGaussianBlur stdDeviation="7.6875"/>
<feColorMatrix type="matrix" values="0 0 0 0 0 0 0 0 0 0 0 0 0 0 0 0 0 0 0.0582218 0"/>
<feBlend mode="normal" in2="effect2_dropShadow_2198_7033" result="effect3_dropShadow_2198_7033"/>
<feColorMatrix in="SourceAlpha" type="matrix" values="0 0 0 0 0 0 0 0 0 0 0 0 0 0 0 0 0 0 127 0" result="hardAlpha"/>
<feOffset dy="33"/>
<feGaussianBlur stdDeviation="25.5"/>
<feColorMatrix type="matrix" values="0 0 0 0 0 0 0 0 0 0 0 0 0 0 0 0 0 0 0.08 0"/>
<feBlend mode="normal" in2="effect3_dropShadow_2198_7033" result="effect4_dropShadow_2198_7033"/>
<feBlend mode="normal" in="SourceGraphic" in2="effect4_dropShadow_2198_7033" result="shape"/>
</filter>
<filter id="filter1_ii_2198_7033" x="71" y="29.5" width="23" height="26" filterUnits="userSpaceOnUse" color-interpolation-filters="sRGB">
<feFlood flood-opacity="0" result="BackgroundImageFix"/>
<feBlend mode="normal" in="SourceGraphic" in2="BackgroundImageFix" result="shape"/>
<feColorMatrix in="SourceAlpha" type="matrix" values="0 0 0 0 0 0 0 0 0 0 0 0 0 0 0 0 0 0 127 0" result="hardAlpha"/>
<feOffset dy="-0.15"/>
<feComposite in2="hardAlpha" operator="arithmetic" k2="-1" k3="1"/>
<feColorMatrix type="matrix" values="0 0 0 0 0 0 0 0 0 0 0 0 0 0 0 0 0 0 0.12 0"/>
<feBlend mode="normal" in2="shape" result="effect1_innerShadow_2198_7033"/>
<feColorMatrix in="SourceAlpha" type="matrix" values="0 0 0 0 0 0 0 0 0 0 0 0 0 0 0 0 0 0 127 0" result="hardAlpha"/>
<feOffset dy="0.15"/>
<feComposite in2="hardAlpha" operator="arithmetic" k2="-1" k3="1"/>
<feColorMatrix type="matrix" values="0 0 0 0 1 0 0 0 0 1 0 0 0 0 1 0 0 0 0.25 0"/>
<feBlend mode="normal" in2="effect1_innerShadow_2198_7033" result="effect2_innerShadow_2198_7033"/>
</filter>
<filter id="filter2_i_2198_7033" x="71.4612" y="42.4998" width="16.6211" height="13.0002" filterUnits="userSpaceOnUse" color-interpolation-filters="sRGB">
<feFlood flood-opacity="0" result="BackgroundImageFix"/>
<feBlend mode="normal" in="SourceGraphic" in2="BackgroundImageFix" result="shape"/>
<feColorMatrix in="SourceAlpha" type="matrix" values="0 0 0 0 0 0 0 0 0 0 0 0 0 0 0 0 0 0 127 0" result="hardAlpha"/>
<feOffset dy="-0.15"/>
<feComposite in2="hardAlpha" operator="arithmetic" k2="-1" k3="1"/>
<feColorMatrix type="matrix" values="0 0 0 0 0 0 0 0 0 0 0 0 0 0 0 0 0 0 0.08 0"/>
<feBlend mode="normal" in2="shape" result="effect1_innerShadow_2198_7033"/>
</filter>
<linearGradient id="paint0_linear_2198_7033" x1="82.7818" y1="31.0851" x2="65.8194" y2="47.8001" gradientUnits="userSpaceOnUse">
<stop stop-color="#00A0FF"/>
<stop offset="0.0066" stop-color="#00A1FF"/>
<stop offset="0.2601" stop-color="#00BEFF"/>
<stop offset="0.5122" stop-color="#00D2FF"/>
<stop offset="0.7604" stop-color="#00DFFF"/>
<stop offset="1" stop-color="#00E3FF"/>
</linearGradient>
<linearGradient id="paint1_linear_2198_7033" x1="94.7677" y1="42.4997" x2="70.6659" y2="42.4997" gradientUnits="userSpaceOnUse">
<stop stop-color="#FFE000"/>
<stop offset="0.4087" stop-color="#FFBD00"/>
<stop offset="0.7754" stop-color="#FFA500"/>
<stop offset="1" stop-color="#FF9C00"/>
</linearGradient>
<linearGradient id="paint2_linear_2198_7033" x1="85.7974" y1="44.8186" x2="62.7943" y2="67.4861" gradientUnits="userSpaceOnUse">
<stop stop-color="#FF3A44"/>
<stop offset="1" stop-color="#C31162"/>
</linearGradient>
<linearGradient id="paint3_linear_2198_7033" x1="68.3348" y1="22.4603" x2="78.6063" y2="32.582" gradientUnits="userSpaceOnUse">
<stop stop-color="#32A071"/>
<stop offset="0.0685" stop-color="#2DA771"/>
<stop offset="0.4762" stop-color="#15CF74"/>
<stop offset="0.8009" stop-color="#06E775"/>
<stop offset="1" stop-color="#00F076"/>
</linearGradient>
</defs>
</svg>
