<svg width="153" height="48" viewBox="0 0 153 48" fill="none" xmlns="http://www.w3.org/2000/svg">
<rect width="153" height="48" rx="10" fill="white"/>
<path d="M53.92 17.18H55.76V18.62C55.29 18.98 54.64 19.19 54.06 19.19C52.68 19.19 51.52 17.99 51.52 16.56C51.52 15.14 52.68 13.94 54.06 13.94C54.77 13.94 55.58 14.26 56.05 14.77L56.76 14.09C56.11 13.42 55.03 13.01 54.06 13.01C52.13 13.01 50.48 14.63 50.48 16.56C50.48 18.49 52.13 20.12 54.06 20.12C55.03 20.12 56.11 19.7 56.76 19.04V16.3H53.92V17.18ZM60.5314 19.24C59.6414 19.24 59.0114 18.62 58.8814 17.76H62.9514C62.9514 15.91 62.0414 14.71 60.4614 14.71C59.0314 14.71 57.8814 15.85 57.8814 17.4C57.8814 18.99 59.1014 20.12 60.5414 20.12C61.2714 20.12 62.1714 19.81 62.6314 19.32L62.0114 18.68C61.7014 19 61.0714 19.24 60.5314 19.24ZM60.5014 15.59C61.3914 15.59 61.8814 16.17 61.9914 16.97H58.8914C59.0514 16.13 59.7014 15.59 60.5014 15.59ZM66.5189 19.07C66.4089 19.18 66.2089 19.26 65.9889 19.26C65.6989 19.26 65.4589 19 65.4589 18.64V15.67H66.6789V14.83H65.4589V13.41H64.4889V14.83H63.7089V15.67H64.4889V18.71C64.4889 19.54 65.0489 20.12 65.8489 20.12C66.2189 20.12 66.5989 19.98 66.8789 19.75L66.5189 19.07ZM71.2393 13.97C71.5593 13.97 71.8293 13.69 71.8293 13.37C71.8293 13.06 71.5593 12.78 71.2393 12.78C70.8993 12.78 70.6393 13.06 70.6393 13.37C70.6393 13.69 70.8993 13.97 71.2393 13.97ZM70.7393 20H71.7293V14.83H70.7393V20ZM75.5814 19.07C75.4714 19.18 75.2714 19.26 75.0514 19.26C74.7614 19.26 74.5214 19 74.5214 18.64V15.67H75.7414V14.83H74.5214V13.41H73.5514V14.83H72.7714V15.67H73.5514V18.71C73.5514 19.54 74.1114 20.12 74.9114 20.12C75.2814 20.12 75.6614 19.98 75.9414 19.75L75.5814 19.07ZM83.1418 20.12C85.0718 20.12 86.6918 18.49 86.6918 16.56C86.6918 14.63 85.0718 13.01 83.1418 13.01C81.2118 13.01 79.5718 14.63 79.5718 16.56C79.5718 18.49 81.2118 20.12 83.1418 20.12ZM83.1418 19.19C81.7718 19.19 80.6118 17.99 80.6118 16.56C80.6118 15.14 81.7718 13.94 83.1418 13.94C84.5118 13.94 85.6618 15.14 85.6618 16.56C85.6618 17.99 84.5118 19.19 83.1418 19.19ZM90.5277 14.71C89.8277 14.71 89.1977 15.07 88.8877 15.58V14.83H87.8977V20H88.8877V16.65C88.9677 16.04 89.5877 15.57 90.3077 15.57C91.0077 15.57 91.4977 16.11 91.4977 16.88V20H92.4677V16.71C92.4677 15.54 91.6677 14.71 90.5277 14.71Z" fill="#282828"/>
<path d="M55.362 29.206H57.602V30.676C57.056 31.068 56.384 31.292 55.726 31.292C54.088 31.292 52.702 29.864 52.702 28.184C52.702 26.518 54.088 25.09 55.726 25.09C56.608 25.09 57.546 25.51 58.12 26.168L59.618 24.824C58.652 23.816 57.168 23.214 55.726 23.214C52.94 23.214 50.574 25.482 50.574 28.184C50.574 30.886 52.94 33.168 55.726 33.168C57.168 33.168 58.652 32.566 59.618 31.558V27.596H55.362V29.206ZM64.8563 33.168C66.9983 33.168 68.7903 31.432 68.7903 29.374C68.7903 27.316 66.9983 25.594 64.8563 25.594C62.7003 25.594 60.8943 27.316 60.8943 29.374C60.8943 31.432 62.7003 33.168 64.8563 33.168ZM64.8563 31.446C63.7643 31.446 62.8543 30.494 62.8543 29.374C62.8543 28.254 63.7643 27.316 64.8563 27.316C65.9343 27.316 66.8443 28.254 66.8443 29.374C66.8443 30.494 65.9343 31.446 64.8563 31.446ZM73.7293 33.168C75.8713 33.168 77.6633 31.432 77.6633 29.374C77.6633 27.316 75.8713 25.594 73.7293 25.594C71.5733 25.594 69.7673 27.316 69.7673 29.374C69.7673 31.432 71.5733 33.168 73.7293 33.168ZM73.7293 31.446C72.6373 31.446 71.7273 30.494 71.7273 29.374C71.7273 28.254 72.6373 27.316 73.7293 27.316C74.8073 27.316 75.7173 28.254 75.7173 29.374C75.7173 30.494 74.8073 31.446 73.7293 31.446ZM84.2824 25.762V26.742C83.7924 26.056 82.8684 25.594 81.8884 25.594C80.0684 25.594 78.6824 27.008 78.6824 29.024C78.6824 31.04 80.0684 32.468 81.8884 32.468C82.8404 32.468 83.7084 32.048 84.2824 31.348V32.146C84.2824 33.084 83.4424 33.686 82.1264 33.686C81.2864 33.686 80.4464 33.42 79.9704 33L79.2564 34.442C79.9704 35.002 81.1744 35.408 82.4484 35.408C84.7304 35.408 86.3404 34.092 86.3404 32.23V25.762H84.2824ZM82.5324 30.746C81.5104 30.746 80.7824 30.032 80.7824 29.024C80.7824 28.016 81.5104 27.316 82.5324 27.316C83.5544 27.316 84.2824 28.016 84.2824 29.024C84.2824 30.032 83.5544 30.746 82.5324 30.746ZM88.1382 33H90.1822V23.214H88.1382V33ZM95.3823 31.362C94.5283 31.362 93.8983 30.83 93.6603 30.046H98.8823C98.8823 27.316 97.5523 25.594 95.2843 25.594C93.1703 25.594 91.5603 27.176 91.5603 29.36C91.5603 31.586 93.2403 33.168 95.3963 33.168C96.4603 33.168 97.7063 32.72 98.3503 32.048L97.0483 30.718C96.6563 31.096 95.9563 31.362 95.3823 31.362ZM95.3683 27.4C96.1943 27.4 96.7263 27.862 96.9223 28.576H93.6883C93.9543 27.848 94.5983 27.4 95.3683 27.4ZM104.231 33H106.289V29.878H108.557C110.643 29.878 112.183 28.534 112.183 26.63C112.183 24.726 110.643 23.382 108.557 23.382H104.231V33ZM106.289 27.988V25.272H108.333C109.355 25.272 110.055 25.804 110.055 26.63C110.055 27.456 109.355 27.988 108.333 27.988H106.289ZM113.417 33H115.461V23.214H113.417V33ZM120.48 25.594C119.472 25.594 118.478 25.874 117.456 26.392L118.142 27.75C118.716 27.456 119.346 27.232 120.018 27.232C121.208 27.232 121.684 27.904 121.684 28.674V28.814C121.068 28.576 120.424 28.45 119.836 28.45C118.156 28.45 116.826 29.43 116.826 30.858C116.826 32.244 118.016 33.168 119.556 33.168C120.34 33.168 121.166 32.86 121.684 32.272V33H123.658V28.674C123.658 26.784 122.37 25.594 120.48 25.594ZM120.018 31.754C119.318 31.754 118.8 31.39 118.8 30.802C118.8 30.214 119.388 29.78 120.13 29.78C120.69 29.78 121.222 29.878 121.684 30.046V30.718C121.544 31.39 120.802 31.754 120.018 31.754ZM127.032 35.52C128.166 35.52 129.09 34.778 129.636 33.364L132.604 25.762H130.518L128.712 30.844L126.808 25.762H124.694L127.704 33.07L127.452 33.602C127.298 33.868 126.99 33.994 126.598 33.994C126.36 33.994 125.996 33.868 125.646 33.672L125.212 35.072C125.702 35.338 126.43 35.52 127.032 35.52Z" fill="#282828"/>
<path d="M20.4612 11.4014C20.1713 11.7128 20 12.196 20 12.8217V35.1778C20 35.8045 20.1713 36.2867 20.4612 36.598L20.5349 36.6708L32.8757 24.1473V23.9997V23.8522L20.5349 11.3276L20.4612 11.4014Z" fill="url(#paint0_linear_2815_967)"/>
<path d="M36.9887 28.3231L32.8758 24.1473V23.9997V23.8521L36.9897 19.6772L37.0824 19.7308L41.9563 22.541C43.3479 23.3436 43.3479 24.6567 41.9563 25.4604L37.0824 28.2705L36.9887 28.3231Z" fill="url(#paint1_linear_2815_967)"/>
<g filter="url(#filter0_i_2815_967)">
<path d="M37.0824 28.2696L32.8748 23.9998L20.4612 36.5981C20.9195 37.0914 21.6775 37.152 22.5312 36.6607L37.0824 28.2696Z" fill="url(#paint2_linear_2815_967)"/>
</g>
<path d="M37.0824 19.7298L22.5312 11.3397C21.6775 10.8474 20.9195 10.9091 20.4612 11.4024L32.8758 24.0007L37.0824 19.7298Z" fill="url(#paint3_linear_2815_967)"/>
<defs>
<filter id="filter0_i_2815_967" x="20.4612" y="23.9998" width="16.6212" height="13.0002" filterUnits="userSpaceOnUse" color-interpolation-filters="sRGB">
<feFlood flood-opacity="0" result="BackgroundImageFix"/>
<feBlend mode="normal" in="SourceGraphic" in2="BackgroundImageFix" result="shape"/>
<feColorMatrix in="SourceAlpha" type="matrix" values="0 0 0 0 0 0 0 0 0 0 0 0 0 0 0 0 0 0 127 0" result="hardAlpha"/>
<feOffset dy="-0.15"/>
<feComposite in2="hardAlpha" operator="arithmetic" k2="-1" k3="1"/>
<feColorMatrix type="matrix" values="0 0 0 0 0 0 0 0 0 0 0 0 0 0 0 0 0 0 0.08 0"/>
<feBlend mode="normal" in2="shape" result="effect1_innerShadow_2815_967"/>
</filter>
<linearGradient id="paint0_linear_2815_967" x1="31.7818" y1="12.5851" x2="14.8194" y2="29.3001" gradientUnits="userSpaceOnUse">
<stop stop-color="#00A0FF"/>
<stop offset="0.0066" stop-color="#00A1FF"/>
<stop offset="0.2601" stop-color="#00BEFF"/>
<stop offset="0.5122" stop-color="#00D2FF"/>
<stop offset="0.7604" stop-color="#00DFFF"/>
<stop offset="1" stop-color="#00E3FF"/>
</linearGradient>
<linearGradient id="paint1_linear_2815_967" x1="43.7678" y1="23.9997" x2="19.666" y2="23.9997" gradientUnits="userSpaceOnUse">
<stop stop-color="#FFE000"/>
<stop offset="0.4087" stop-color="#FFBD00"/>
<stop offset="0.7754" stop-color="#FFA500"/>
<stop offset="1" stop-color="#FF9C00"/>
</linearGradient>
<linearGradient id="paint2_linear_2815_967" x1="34.7974" y1="26.3186" x2="11.7943" y2="48.9861" gradientUnits="userSpaceOnUse">
<stop stop-color="#FF3A44"/>
<stop offset="1" stop-color="#C31162"/>
</linearGradient>
<linearGradient id="paint3_linear_2815_967" x1="17.3348" y1="3.96027" x2="27.6064" y2="14.082" gradientUnits="userSpaceOnUse">
<stop stop-color="#32A071"/>
<stop offset="0.0685" stop-color="#2DA771"/>
<stop offset="0.4762" stop-color="#15CF74"/>
<stop offset="0.8009" stop-color="#06E775"/>
<stop offset="1" stop-color="#00F076"/>
</linearGradient>
</defs>
</svg>
