<svg width="1436" height="1128" viewBox="0 0 1436 1128" fill="none" xmlns="http://www.w3.org/2000/svg">
<g clip-path="url(#clip0_2367_432)">
<rect width="1436" height="1128" rx="40" fill="#07070A"/>
<g filter="url(#filter0_f_2367_432)">
<ellipse cx="285" cy="1577" rx="498" ry="251" fill="#6C4AA3"/>
</g>
<path d="M317.58 707V691H327.611V693.078H319.994V697.953H327.088V700.023H319.994V704.922H327.705V707H317.58ZM330.648 707V695H332.891V696.953H333.039C333.289 696.292 333.698 695.776 334.266 695.406C334.833 695.031 335.513 694.844 336.305 694.844C337.107 694.844 337.779 695.031 338.32 695.406C338.867 695.781 339.271 696.297 339.531 696.953H339.656C339.943 696.312 340.398 695.802 341.023 695.422C341.648 695.036 342.393 694.844 343.258 694.844C344.346 694.844 345.234 695.185 345.922 695.867C346.615 696.549 346.961 697.578 346.961 698.953V707H344.625V699.172C344.625 698.359 344.404 697.771 343.961 697.406C343.518 697.042 342.99 696.859 342.375 696.859C341.615 696.859 341.023 697.094 340.602 697.562C340.18 698.026 339.969 698.622 339.969 699.352V707H337.641V699.023C337.641 698.372 337.438 697.849 337.031 697.453C336.625 697.057 336.096 696.859 335.445 696.859C335.003 696.859 334.594 696.977 334.219 697.211C333.849 697.44 333.549 697.76 333.32 698.172C333.096 698.583 332.984 699.06 332.984 699.602V707H330.648ZM353.584 707.266C352.824 707.266 352.136 707.125 351.521 706.844C350.907 706.557 350.42 706.143 350.061 705.602C349.706 705.06 349.529 704.396 349.529 703.609C349.529 702.932 349.66 702.375 349.92 701.937C350.18 701.5 350.532 701.154 350.975 700.898C351.417 700.643 351.912 700.451 352.459 700.32C353.006 700.19 353.563 700.091 354.131 700.023C354.85 699.94 355.433 699.872 355.881 699.82C356.329 699.763 356.654 699.672 356.857 699.547C357.061 699.422 357.162 699.219 357.162 698.937V698.883C357.162 698.201 356.969 697.672 356.584 697.297C356.204 696.922 355.636 696.734 354.881 696.734C354.094 696.734 353.475 696.909 353.021 697.258C352.574 697.602 352.264 697.984 352.092 698.406L349.896 697.906C350.157 697.177 350.537 696.589 351.037 696.141C351.542 695.687 352.123 695.359 352.779 695.156C353.436 694.948 354.126 694.844 354.85 694.844C355.329 694.844 355.837 694.901 356.373 695.016C356.915 695.125 357.42 695.328 357.889 695.625C358.363 695.922 358.751 696.346 359.053 696.898C359.355 697.445 359.506 698.156 359.506 699.031V707H357.225V705.359H357.131C356.98 705.661 356.753 705.958 356.451 706.25C356.149 706.542 355.761 706.784 355.287 706.977C354.813 707.169 354.245 707.266 353.584 707.266ZM354.092 705.391C354.738 705.391 355.29 705.263 355.748 705.008C356.212 704.753 356.563 704.419 356.803 704.008C357.048 703.591 357.17 703.146 357.17 702.672V701.125C357.087 701.208 356.925 701.286 356.686 701.359C356.451 701.427 356.183 701.487 355.881 701.539C355.579 701.586 355.285 701.63 354.998 701.672C354.712 701.708 354.472 701.74 354.279 701.766C353.826 701.823 353.412 701.919 353.037 702.055C352.667 702.19 352.37 702.385 352.146 702.641C351.928 702.891 351.818 703.224 351.818 703.641C351.818 704.219 352.032 704.656 352.459 704.953C352.886 705.245 353.43 705.391 354.092 705.391ZM362.617 707V695H364.953V707H362.617ZM363.797 693.148C363.391 693.148 363.042 693.013 362.75 692.742C362.464 692.466 362.32 692.138 362.32 691.758C362.32 691.372 362.464 691.044 362.75 690.773C363.042 690.497 363.391 690.359 363.797 690.359C364.203 690.359 364.549 690.497 364.836 690.773C365.128 691.044 365.273 691.372 365.273 691.758C365.273 692.138 365.128 692.466 364.836 692.742C364.549 693.013 364.203 693.148 363.797 693.148ZM370.432 691V707H368.096V691H370.432Z" fill="black" fill-opacity="0.5"/>
<path d="M317.58 627V611H323.283C324.528 611 325.559 611.227 326.377 611.68C327.195 612.133 327.807 612.753 328.213 613.539C328.619 614.32 328.822 615.201 328.822 616.18C328.822 617.164 328.617 618.049 328.205 618.836C327.799 619.617 327.184 620.237 326.361 620.695C325.544 621.148 324.515 621.375 323.275 621.375H319.354V619.328H323.057C323.843 619.328 324.481 619.193 324.971 618.922C325.46 618.646 325.82 618.271 326.049 617.797C326.278 617.323 326.393 616.784 326.393 616.18C326.393 615.576 326.278 615.039 326.049 614.57C325.82 614.102 325.458 613.734 324.963 613.469C324.473 613.203 323.827 613.07 323.025 613.07H319.994V627H317.58ZM333.801 619.875V627H331.465V611H333.77V616.953H333.918C334.199 616.307 334.629 615.794 335.207 615.414C335.785 615.034 336.54 614.844 337.473 614.844C338.296 614.844 339.014 615.013 339.629 615.352C340.249 615.69 340.728 616.195 341.066 616.867C341.41 617.534 341.582 618.367 341.582 619.367V627H339.246V619.648C339.246 618.768 339.02 618.086 338.566 617.602C338.113 617.112 337.483 616.867 336.676 616.867C336.124 616.867 335.629 616.984 335.191 617.219C334.759 617.453 334.418 617.797 334.168 618.25C333.923 618.698 333.801 619.24 333.801 619.875ZM349.754 627.242C348.629 627.242 347.647 626.984 346.809 626.469C345.97 625.953 345.319 625.232 344.855 624.305C344.392 623.378 344.16 622.294 344.16 621.055C344.16 619.81 344.392 618.721 344.855 617.789C345.319 616.857 345.97 616.133 346.809 615.617C347.647 615.102 348.629 614.844 349.754 614.844C350.879 614.844 351.861 615.102 352.699 615.617C353.538 616.133 354.189 616.857 354.652 617.789C355.116 618.721 355.348 619.81 355.348 621.055C355.348 622.294 355.116 623.378 354.652 624.305C354.189 625.232 353.538 625.953 352.699 626.469C351.861 626.984 350.879 627.242 349.754 627.242ZM349.762 625.281C350.491 625.281 351.095 625.089 351.574 624.703C352.053 624.318 352.408 623.805 352.637 623.164C352.871 622.523 352.988 621.818 352.988 621.047C352.988 620.281 352.871 619.578 352.637 618.937C352.408 618.292 352.053 617.773 351.574 617.383C351.095 616.992 350.491 616.797 349.762 616.797C349.027 616.797 348.418 616.992 347.934 617.383C347.454 617.773 347.098 618.292 346.863 618.937C346.634 619.578 346.52 620.281 346.52 621.047C346.52 621.818 346.634 622.523 346.863 623.164C347.098 623.805 347.454 624.318 347.934 624.703C348.418 625.089 349.027 625.281 349.762 625.281ZM360.291 619.875V627H357.955V615H360.197V616.953H360.346C360.622 616.318 361.054 615.807 361.643 615.422C362.236 615.036 362.984 614.844 363.885 614.844C364.702 614.844 365.419 615.016 366.033 615.359C366.648 615.698 367.124 616.203 367.463 616.875C367.801 617.547 367.971 618.378 367.971 619.367V627H365.635V619.648C365.635 618.779 365.408 618.099 364.955 617.609C364.502 617.115 363.88 616.867 363.088 616.867C362.546 616.867 362.064 616.984 361.643 617.219C361.226 617.453 360.895 617.797 360.65 618.25C360.411 618.698 360.291 619.24 360.291 619.875ZM376.275 627.242C375.093 627.242 374.075 626.99 373.221 626.484C372.372 625.974 371.715 625.258 371.252 624.336C370.794 623.409 370.564 622.323 370.564 621.078C370.564 619.849 370.794 618.766 371.252 617.828C371.715 616.891 372.361 616.159 373.189 615.633C374.023 615.107 374.997 614.844 376.111 614.844C376.788 614.844 377.445 614.956 378.08 615.18C378.715 615.404 379.286 615.755 379.791 616.234C380.296 616.714 380.695 617.336 380.986 618.102C381.278 618.862 381.424 619.786 381.424 620.875V621.703H371.885V619.953H379.135C379.135 619.339 379.01 618.794 378.76 618.32C378.51 617.841 378.158 617.464 377.705 617.187C377.257 616.911 376.731 616.773 376.127 616.773C375.471 616.773 374.898 616.935 374.408 617.258C373.924 617.576 373.549 617.992 373.283 618.508C373.023 619.018 372.893 619.573 372.893 620.172V621.539C372.893 622.341 373.033 623.023 373.314 623.586C373.601 624.148 373.999 624.578 374.51 624.875C375.02 625.167 375.617 625.312 376.299 625.312C376.742 625.312 377.145 625.25 377.51 625.125C377.874 624.995 378.189 624.802 378.455 624.547C378.721 624.292 378.924 623.977 379.064 623.602L381.275 624C381.098 624.651 380.781 625.221 380.322 625.711C379.869 626.195 379.299 626.573 378.611 626.844C377.929 627.109 377.15 627.242 376.275 627.242Z" fill="black" fill-opacity="0.5"/>
<g filter="url(#filter1_f_2367_432)">
<ellipse cx="142.746" cy="29.4815" rx="216.894" ry="318.289" transform="rotate(76.6598 142.746 29.4815)" fill="url(#paint0_linear_2367_432)" fill-opacity="0.28"/>
</g>
<g filter="url(#filter2_f_2367_432)">
<circle cx="1326.46" cy="1027.46" r="173.275" transform="rotate(-22.5384 1326.46 1027.46)" fill="url(#paint1_linear_2367_432)"/>
</g>
<g filter="url(#filter3_f_2367_432)">
<ellipse cx="384.559" cy="1386.78" rx="225.124" ry="293.536" transform="rotate(76.6598 384.559 1386.78)" fill="url(#paint2_linear_2367_432)"/>
</g>
</g>
<defs>
<filter id="filter0_f_2367_432" x="-613" y="926" width="1796" height="1302" filterUnits="userSpaceOnUse" color-interpolation-filters="sRGB">
<feFlood flood-opacity="0" result="BackgroundImageFix"/>
<feBlend mode="normal" in="SourceGraphic" in2="BackgroundImageFix" result="shape"/>
<feGaussianBlur stdDeviation="200" result="effect1_foregroundBlur_2367_432"/>
</filter>
<filter id="filter1_f_2367_432" x="-360.435" y="-383.449" width="1006.36" height="825.861" filterUnits="userSpaceOnUse" color-interpolation-filters="sRGB">
<feFlood flood-opacity="0" result="BackgroundImageFix"/>
<feBlend mode="normal" in="SourceGraphic" in2="BackgroundImageFix" result="shape"/>
<feGaussianBlur stdDeviation="94.7075" result="effect1_foregroundBlur_2367_432"/>
</filter>
<filter id="filter2_f_2367_432" x="799.672" y="500.672" width="1053.57" height="1053.57" filterUnits="userSpaceOnUse" color-interpolation-filters="sRGB">
<feFlood flood-opacity="0" result="BackgroundImageFix"/>
<feBlend mode="normal" in="SourceGraphic" in2="BackgroundImageFix" result="shape"/>
<feGaussianBlur stdDeviation="176.733" result="effect1_foregroundBlur_2367_432"/>
</filter>
<filter id="filter3_f_2367_432" x="-259.257" y="803.971" width="1287.63" height="1165.62" filterUnits="userSpaceOnUse" color-interpolation-filters="sRGB">
<feFlood flood-opacity="0" result="BackgroundImageFix"/>
<feBlend mode="normal" in="SourceGraphic" in2="BackgroundImageFix" result="shape"/>
<feGaussianBlur stdDeviation="176.733" result="effect1_foregroundBlur_2367_432"/>
</filter>
<linearGradient id="paint0_linear_2367_432" x1="142.746" y1="-288.808" x2="142.746" y2="347.771" gradientUnits="userSpaceOnUse">
<stop stop-color="#FB038E"/>
<stop offset="1" stop-color="#AA9CFF"/>
</linearGradient>
<linearGradient id="paint1_linear_2367_432" x1="1326.46" y1="854.183" x2="1326.46" y2="1200.73" gradientUnits="userSpaceOnUse">
<stop stop-color="#2603FB"/>
<stop offset="1" stop-color="#DC06FF"/>
</linearGradient>
<linearGradient id="paint2_linear_2367_432" x1="384.559" y1="1093.24" x2="384.559" y2="1680.31" gradientUnits="userSpaceOnUse">
<stop stop-color="#03FB75"/>
<stop offset="1" stop-color="#06FFF0"/>
</linearGradient>
<clipPath id="clip0_2367_432">
<rect width="1436" height="1128" rx="40" fill="white"/>
</clipPath>
</defs>
</svg>
